<svg id="Layer_1" data-name="Layer 1" xmlns="http://www.w3.org/2000/svg" viewBox="0 0 200 50"><defs><style>.cls-1{font-size:20.69px;font-family:Montserrat-SemiBold, Montserrat;font-weight:600;}.cls-2{letter-spacing:-0.01em;}.cls-3{letter-spacing:-0.02em;}.cls-4{letter-spacing:0.02em;}.cls-5{letter-spacing:0em;}.cls-6{fill:#06f;}.cls-7{font-size:3.91px;font-family:Roboto-Regular, Roboto;}.cls-8{letter-spacing:-0.01em;}.cls-9{fill:none;stroke:#231f20;stroke-miterlimit:10;stroke-width:0.25px;}</style></defs><text class="cls-1" transform="translate(76.27 31.61)"><tspan class="cls-2">O</tspan><tspan class="cls-3" x="17.11" y="0">’</tspan><tspan x="21.81" y="0">sma</tspan><tspan class="cls-4" x="66.82" y="0">r</tspan><tspan class="cls-5" x="75.82" y="0">t</tspan></text><path class="cls-6" d="M43.86,26.38l.28.12a11.79,11.79,0,0,0,4.94.95A11.83,11.83,0,0,0,54,26.5l.28-.12a12,12,0,0,1,9.42,0l.28.12a11.85,11.85,0,0,0,5,.95V8.05a.34.34,0,0,0-.34-.34H39.48a.34.34,0,0,0-.34.34V27.92h.73l.66.05.52.06.32.05a11.77,11.77,0,0,1,2.47.79,16,16,0,0,0,1.86.66,11.4,11.4,0,0,0,2.59.38h1.55a11.78,11.78,0,0,0,4.42-1,10.53,10.53,0,0,1,4.61-1h.22a10.38,10.38,0,0,1,4.56,1,11.73,11.73,0,0,0,3.87,1V31a10.63,10.63,0,0,1-3.36-.9,14.08,14.08,0,0,0-2-.71A12,12,0,0,0,59.2,29h-.43a11.76,11.76,0,0,0-5,1.06,10.79,10.79,0,0,1-4.09,1h-1.2a10.62,10.62,0,0,1-4.11-1,12.44,12.44,0,0,0-2.79-.87l-.37-.06-.61-.07c-.43,0-.91-.07-1.44-.07v3.85h.73l.66,0,.52.07.32.05a11.22,11.22,0,0,1,2.47.78,14.33,14.33,0,0,0,1.86.66,11.93,11.93,0,0,0,2.59.39h1.55a12,12,0,0,0,4.42-1.05,10.53,10.53,0,0,1,4.61-1h.22a10.67,10.67,0,0,1,4.56,1,12,12,0,0,0,3.87,1v1.07a10.63,10.63,0,0,1-3.36-.9,15.4,15.4,0,0,0-2-.71,12.47,12.47,0,0,0-2.93-.35h-.43a11.76,11.76,0,0,0-5,1.06,10.6,10.6,0,0,1-4.09,1h-1.2a10.44,10.44,0,0,1-4.11-1,12.44,12.44,0,0,0-2.79-.87l-.37-.06L40.58,34q-.64-.06-1.44-.06v3.84h.38l.35,0,.66,0,.52.07.32,0a11.22,11.22,0,0,1,2.47.78,14.33,14.33,0,0,0,1.86.66,10.87,10.87,0,0,0,2.59.38l.21,0h1.13l.21,0h0a11.59,11.59,0,0,0,4.42-1,10.53,10.53,0,0,1,4.61-1h.22a10.67,10.67,0,0,1,4.56,1,11.87,11.87,0,0,0,4.71,1.06h0a.69.69,0,0,0,.49-.35.55.55,0,0,0,.08-.29v-.71a10.26,10.26,0,0,1-3.67-.56L65,37.79l-.23-.09-.34-.14-.23-.09a13.38,13.38,0,0,0-10.44,0,10.64,10.64,0,0,1-4.71,1,10.65,10.65,0,0,1-4.72-1,15.82,15.82,0,0,0-1.66-.6,10.84,10.84,0,0,0-2.21-.4V35.33a10.69,10.69,0,0,1,3.37.9,12,12,0,0,0,5.22,1.06,12,12,0,0,0,5.22-1.06,12,12,0,0,1,9.42,0,12,12,0,0,0,5.22,1.06v-.7h0V34.16h0v-.65A10.49,10.49,0,0,1,65.27,33L65,32.87l-.23-.09-.34-.14-.23-.09a13.38,13.38,0,0,0-10.44,0,10.78,10.78,0,0,1-4.71,1,10.8,10.8,0,0,1-4.72-1,11.66,11.66,0,0,0-3.86-1h0V30.4h0a10,10,0,0,1,2.17.45l.09,0,.1,0,.28.1.09,0,.36.15.27.11a12.13,12.13,0,0,0,5.22,1.06,12.17,12.17,0,0,0,5.22-1.06,12,12,0,0,1,9.42,0,12.17,12.17,0,0,0,5.22,1.06v-.69h0V28.59a10.8,10.8,0,0,1-4.72-1,13.38,13.38,0,0,0-10.44,0,10.78,10.78,0,0,1-4.71,1,10.8,10.8,0,0,1-4.72-1,11.88,11.88,0,0,0-3.87-1V25.48A10.62,10.62,0,0,1,43.86,26.38Zm1.57-14.3,0-.18a.55.55,0,0,1,.1-.22.75.75,0,0,1,.39-.33,2.3,2.3,0,0,1,.66-.17l.37,0a2,2,0,0,1,.79.13.62.62,0,0,1,.34.27.54.54,0,0,1,.07.13.65.65,0,0,1,0,.34.75.75,0,0,1-.15.23s0,0-.06.05l-.24.18,0,0a1.51,1.51,0,0,0-.23.21,1.63,1.63,0,0,0-.17.2l-.13.2-.1.18,0,.1c0,.06,0,.06-.1,0a1.16,1.16,0,0,0-.61,0,1.11,1.11,0,0,0-.34.14s0,0-.07,0l0,0-.09-.17a1.62,1.62,0,0,1-.1-.18l-.09-.21a2.25,2.25,0,0,1-.08-.24,2.29,2.29,0,0,1-.07-.28h0A1.83,1.83,0,0,1,45.43,12.08Zm4.77,2.33a1.91,1.91,0,0,1,.13.45,2.93,2.93,0,0,1,.06.58,1.85,1.85,0,0,1-.13.79.85.85,0,0,1-.21.31.48.48,0,0,1-.19.09.58.58,0,0,1-.29,0,.56.56,0,0,1-.27-.17,0,0,0,0,1,0,0c-.08-.09-.14-.18-.22-.28h0a2.57,2.57,0,0,0-.21-.24l-.21-.18-.2-.13-.19-.1-.11,0s-.06,0,0-.1a1.09,1.09,0,0,0-.08-1s0,0,0-.07l.12-.07.19-.1.2-.1.24-.09.28-.07.08,0,.25,0,.26,0,.14.05A.82.82,0,0,1,50.2,14.41Zm-3.74-.25a.83.83,0,0,1,0,1.66.83.83,0,1,1,0-1.66Zm-1.25,3.45a1.15,1.15,0,0,0,.23-.21,1.12,1.12,0,0,0,.18-.2,1.37,1.37,0,0,0,.13-.2,1.62,1.62,0,0,0,.1-.18l.06-.13s0,0,0,0H46a1.09,1.09,0,0,0,1-.08s0,0,.07,0l0,.05.09.16a1.74,1.74,0,0,1,.1.19l.09.21a2.25,2.25,0,0,1,.08.24l.06.26v0a.92.92,0,0,1,0,.33.88.88,0,0,1,0,.16.82.82,0,0,1-.11.25.83.83,0,0,1-.38.31,2.53,2.53,0,0,1-.84.18H46a1.85,1.85,0,0,1-.79-.13.79.79,0,0,1-.3-.2.47.47,0,0,1-.1-.2.61.61,0,0,1,0-.3.59.59,0,0,1,.17-.26l0,0,.27-.21Zm-2.49-3.92a.75.75,0,0,1,.23-.32l.17-.08a.58.58,0,0,1,.32,0,.54.54,0,0,1,.24.16s0,0,0,.05.12.17.19.25v0l.21.23.2.17a1.37,1.37,0,0,0,.2.13l.18.1.12,0,0,0s0,0,0,.07a1.09,1.09,0,0,0,.08,1s0,0,0,.07l-.09,0-.16.1-.19.09-.21.09-.24.07-.22.05h-.06a1,1,0,0,1-.34,0l-.11,0a.71.71,0,0,1-.29-.14.81.81,0,0,1-.27-.35,3,3,0,0,1-.19-.91v-.12A2.05,2.05,0,0,1,42.72,13.69Z"/><text class="cls-7" transform="translate(160.16 19.42)"><tspan class="cls-8">T</tspan><tspan x="2.28" y="0">C</tspan></text><circle class="cls-9" cx="162.57" cy="17.63" r="3"/></svg>