<svg id="Layer_1" data-name="Layer 1" xmlns="http://www.w3.org/2000/svg" viewBox="0 0 200 50"><defs><style>.cls-1{font-size:22.94px;font-family:Inter24pt-Bold, "Inter 24pt";font-weight:700;}.cls-2{letter-spacing:0.01em;}.cls-3{fill:#0b3c5d;}</style></defs><text class="cls-1" transform="translate(70.06 33.23)">AM<tspan class="cls-2" x="37.59" y="0">A</tspan><tspan x="54.6" y="0">AN</tspan></text><path class="cls-3" d="M61.44,8.36H42.2a.58.58,0,0,0-.58.58V41.31a.56.56,0,0,0,.07.26.57.57,0,0,0,.51.32H61.44a.58.58,0,0,0,.52-.32.55.55,0,0,0,.06-.26V8.94A.58.58,0,0,0,61.44,8.36Zm-3,8.28v4.25l-3.82,1.37,3.82,1.37v4.23l-3.86,1.38,3.86,1.38v4.27l-3.8,1.36-1,.34-4.9,1.75-3.44-1.21-.13-.05V35.42l.13-.05,3.44-1.22,2.62-.92,1.35-.48-4-1.42-3.39-1.19-.13-.05v-1.7l.13-.05,3.39-1.2,4-1.4-2.45-.86-1.49-.52-3.42-1.21-.13,0V21.42l.13-.05,3.42-1.2,4-1.41-6.31-2.22-1.08-.38-.13-.05v-4.2l.13,0,8.34,3,4.49,1.61Z"/></svg>