<svg id="Layer_1" data-name="Layer 1" xmlns="http://www.w3.org/2000/svg" viewBox="0 0 182.33 38.03"><defs><style>.cls-1{isolation:isolate;font-size:36px;}.cls-1,.cls-5{font-family:BebasNeue-Regular, Bebas Neue;}.cls-2,.cls-6{fill:#0d0d2f;}.cls-3{fill:none;stroke:#dcb31c;stroke-miterlimit:10;stroke-width:0.64px;}.cls-4{fill:#dcb31c;}.cls-5{font-size:5.12px;fill:#4aa8e2;}.cls-6{font-size:3.2px;font-family:Montserrat-SemiBold, Montserrat;font-weight:600;}</style></defs><text class="cls-1" transform="translate(48.13 30.71)">HOPEBRIDGE</text><path class="cls-2" d="M46.86,25v.45c0,.1,0,.2,0,.3s0,.22,0,.33,0,.09,0,.14,0,.17,0,.25l-.06.54a2.48,2.48,0,0,1,0,.27l0,.27c0,.38-.11.75-.18,1.12,0,.12,0,.24-.08.36s0,.14,0,.21l-.06.24c0,.21-.11.42-.16.62l-.06.21-.08.26c-.07.25-.16.5-.24.75h0l-.15.4h0l-.15.4-.17.39c-.05.13-.11.26-.17.39l-.15.33,0,.06c-.06.12-.12.25-.19.37s-.13.25-.2.37-.13.25-.2.37a.47.47,0,0,0,0,.1l-.08.13-.08.13c-.14.24-.28.46-.43.69l0,0-.2.3-.08.1c-.1.14-.2.29-.31.43a1.33,1.33,0,0,1-.14.19l-.13.17-.26.33-.13.16-.16.18-.12.14a3.58,3.58,0,0,1-.26.29v0l-.29.31c-.19.2-.39.4-.59.59l-.3.29-.33.29-.14.13-.22.18-.25.21c-.31.24-.62.48-.94.71l-.18.13q-.56.38-1.14.72l-.15.09-.27.16-.2.11L36.4,42l-.42.21-.13.06-.4.18c-.31.14-.63.27-1,.39s-.82.29-1.24.41l-.41.12h0l-.22.07-.23,0-.48.11-.21.05c-.39.08-.78.14-1.17.2l-.43.05H29.9l-.12,0-.2,0h-.33l-.18,0h-.33c-.29,0-.59,0-.89,0s-.6,0-.9,0h-.32l-.19,0h-.32l-.21,0-.12,0h-.18l-.42-.05c-.4-.06-.79-.12-1.17-.2l-.23-.05-.47-.11-.22,0-.23-.07h0l-.41-.12c-.39-.11-.77-.24-1.14-.38l-.1,0-.07,0c-.3-.11-.59-.23-.88-.36l-.4-.18-.13-.06L19.29,42l-.51-.26-.2-.11-.27-.16-.15-.09c-.39-.23-.76-.47-1.13-.72l-.18-.13c-.33-.23-.64-.47-1-.71l-.25-.21-.21-.18-.14-.13c-.12-.09-.22-.19-.33-.29l-.31-.29c-.2-.19-.4-.39-.59-.59l-.28-.31c-.19-.21-.38-.42-.55-.63L13.1,37a1.15,1.15,0,0,0-.14-.17l-.12-.16-.13-.17c-.18-.23-.35-.48-.52-.72l-.21-.3v0c-.15-.23-.3-.46-.44-.69l-.1-.18,0-.08,0,0c0-.06-.07-.13-.11-.2a1.28,1.28,0,0,1-.11-.2.75.75,0,0,1-.07-.12l-.14-.27-.09-.17a1.24,1.24,0,0,0-.1-.2l-.09-.2-.09-.19-.09-.21a1.42,1.42,0,0,1-.08-.18l-.1-.22-.06-.17c-.06-.13-.11-.26-.16-.4l-.15-.4c0-.13-.09-.27-.14-.4l-.06-.21-.06-.19-.08-.26c0-.05,0-.11,0-.17a1.82,1.82,0,0,1-.07-.25.94.94,0,0,1,0-.16l-.06-.21c0-.19-.09-.38-.13-.57l-.09-.49a1.42,1.42,0,0,0,0-.2l0-.24a1.55,1.55,0,0,1,0-.21l0-.22c-.05-.36-.08-.72-.11-1.08h0l0-.44c0-.19,0-.38,0-.57v-.12c0-.11,0-.22,0-.33a18.93,18.93,0,0,1,.49-4.29c0-.16.07-.31.11-.46l.12-.45c.15-.53.32-1.05.52-1.56,0-.14.11-.28.17-.43l.18-.42c.15-.36.32-.7.49-1.05s.36-.67.56-1l.12-.2c.11-.2.24-.39.36-.58l.13-.19.26-.38.27-.37.28-.36.28-.36a19.34,19.34,0,0,1,3.59-3.35A19,19,0,0,1,46.86,25Z" transform="translate(-8.83 -5.99)"/><path class="cls-3" d="M39.37,25v.27c0,.06,0,.13,0,.19a1.41,1.41,0,0,1,0,.2v.08a.76.76,0,0,0,0,.15l0,.33a.88.88,0,0,0,0,.16,1,1,0,0,0,0,.17c0,.22-.07.45-.11.67s0,.15,0,.22l0,.13,0,.14c0,.13-.07.26-.1.38a.5.5,0,0,1,0,.13c0,.05,0,.1,0,.15l-.15.46h0l-.09.24h0l-.1.24a2.44,2.44,0,0,1-.1.24c0,.08-.07.16-.1.23a2,2,0,0,1-.1.21s0,0,0,0l-.12.22a1,1,0,0,1-.12.23l-.12.22,0,.06a2140699602624,2140699602624,0,0,1-.1.16c-.08.14-.17.28-.26.42v0l-.12.18-.05.06-.18.26L37,32l-.08.1-.16.2-.08.1-.09.11a.27.27,0,0,0-.07.08l-.16.18h0l-.18.18a4,4,0,0,1-.35.36l-.19.18-.2.18-.08.07-.13.11-.16.13c-.18.15-.37.29-.57.43l-.11.08-.68.44-.1,0-.16.1-.12.06-.31.16-.25.13-.08,0-.24.11c-.19.09-.39.17-.58.24l-.75.25-.25.07h0l-.13,0-.14,0-.29.06-.13,0c-.24.05-.47.09-.71.12l-.26,0H29l-.12,0H26.8l-.12,0h-.19l-.25,0q-.36,0-.72-.12l-.13,0-.28-.06-.14,0-.14,0h0l-.25-.07-.69-.23-.06,0,0,0-.53-.22L23,35.45l-.08,0-.25-.13-.31-.16-.12-.06-.16-.1-.09,0c-.24-.14-.47-.29-.69-.44l-.11-.08c-.2-.14-.39-.28-.57-.43l-.15-.13-.14-.11-.08-.07-.2-.18-.18-.18a3.06,3.06,0,0,1-.36-.36l-.17-.18L19,32.38l-.08-.1-.08-.11-.08-.09a.86.86,0,0,0-.07-.1c-.11-.15-.22-.29-.32-.44l-.13-.18v0c-.09-.14-.18-.28-.26-.42l-.06-.11,0,0v0l-.07-.13a.75.75,0,0,0-.07-.12.25.25,0,0,0,0-.07l-.08-.17-.06-.1a.61.61,0,0,1-.05-.12l-.06-.12-.06-.12-.05-.12a1.17,1.17,0,0,0,0-.11l-.06-.14,0-.1-.09-.24L17,28.84l-.09-.25a.56.56,0,0,0,0-.12l0-.12c0-.05,0-.1-.05-.16l0-.1a.83.83,0,0,0,0-.15.36.36,0,0,1,0-.1s0-.08,0-.13-.05-.23-.07-.34l-.06-.3a.5.5,0,0,1,0-.12l0-.14a.59.59,0,0,0,0-.13c0-.05,0-.09,0-.13,0-.22-.06-.44-.07-.66h0a2.45,2.45,0,0,1,0-.27c0-.12,0-.23,0-.35s0-.05,0-.07V25a11.08,11.08,0,0,1,.3-2.6,2.29,2.29,0,0,1,.07-.28,2.68,2.68,0,0,1,.07-.27,9.4,9.4,0,0,1,.31-.94l.1-.27a2.72,2.72,0,0,0,.11-.25l.3-.64c.11-.2.22-.41.34-.61L18,19l.22-.35.08-.11.16-.23c.05-.08.11-.15.16-.22l.17-.22.17-.22a11.65,11.65,0,0,1,2.18-2A11.52,11.52,0,0,1,39.37,25Z" transform="translate(-8.83 -5.99)"/><path class="cls-3" d="M45.13,25v.41c0,.09,0,.18,0,.28s0,.2,0,.29v.13c0,.08,0,.15,0,.22s0,.33,0,.5l0,.24,0,.25c0,.34-.1.68-.17,1,0,.11,0,.23-.07.34s0,.12,0,.19,0,.14-.05.21l-.15.57c0,.06,0,.13,0,.19s-.05.15-.07.23c-.07.23-.15.46-.23.68v0l-.13.36h0l-.15.36c0,.12-.09.24-.14.36s-.11.23-.16.35l-.14.3,0,0a3.59,3.59,0,0,1-.17.34,3.65,3.65,0,0,1-.18.34l-.18.34a.35.35,0,0,0,0,.08.75.75,0,0,0-.07.12l-.07.13-.4.62v0c-.06.1-.13.19-.19.28L42,34.9l-.29.39-.13.18-.11.15-.24.3-.12.14-.14.17-.11.12-.24.27v0l-.26.28c-.18.18-.35.36-.54.54l-.28.26-.29.26-.13.12-.2.16a2.11,2.11,0,0,1-.23.19c-.28.23-.56.44-.85.65l-.17.12c-.33.23-.68.45-1,.66l-.14.08-.24.14-.19.1-.46.24-.38.19-.11,0-.37.17-.86.35c-.37.13-.75.26-1.13.37l-.38.11h0l-.2.05-.21,0-.44.1-.19,0c-.35.08-.71.14-1.07.19l-.38.05h0l-.15,0h-.3l-.16,0h-.6l-.81,0-.82,0h-.6l-.16,0H26l-.16,0h0l-.39-.05c-.36,0-.72-.11-1.07-.19l-.2,0-.43-.1-.2,0-.21-.05h0l-.38-.11c-.35-.1-.7-.22-1-.34l-.08,0-.07,0-.8-.32-.36-.17-.12,0-.38-.19-.46-.24-.19-.1L19.18,40,19,39.88c-.35-.21-.69-.43-1-.66l-.16-.12c-.3-.21-.58-.42-.86-.65l-.23-.19-.2-.16L16.44,38l-.3-.26-.28-.26-.54-.54a3.45,3.45,0,0,0-.26-.28l-.5-.58-.12-.14-.12-.16a1.34,1.34,0,0,1-.11-.14l-.12-.15c-.17-.22-.32-.44-.48-.66l-.18-.28,0,0q-.21-.32-.39-.63a.86.86,0,0,1-.1-.16l-.05-.08,0,0-.1-.18a1.62,1.62,0,0,1-.1-.18l-.06-.12c-.05-.08-.09-.16-.13-.24l-.08-.16-.09-.18-.09-.18a1.3,1.3,0,0,0-.08-.17c0-.06,0-.13-.08-.19L12,31.84l-.09-.21-.06-.15c-.05-.12-.1-.24-.14-.36l-.14-.36-.12-.37-.06-.19L11.3,30c0-.07,0-.15-.07-.23a.83.83,0,0,0,0-.15l-.06-.23c0-.05,0-.1,0-.15s0-.13-.05-.19-.08-.34-.11-.52l-.09-.45,0-.17c0-.07,0-.14,0-.22l0-.19a1.5,1.5,0,0,1,0-.2c-.05-.33-.08-.65-.11-1h0l0-.41c0-.17,0-.34,0-.51a.45.45,0,0,1,0-.11V25A17.27,17.27,0,0,1,11,21.1c0-.14.07-.28.11-.42s.07-.28.11-.41c.13-.48.29-.95.46-1.41l.16-.39.16-.39c.14-.32.29-.64.45-.95s.33-.61.51-.91l.1-.18c.11-.18.22-.36.34-.53s.07-.12.11-.17l.24-.35.24-.33.26-.33.26-.33A17.29,17.29,0,0,1,45.13,25Z" transform="translate(-8.83 -5.99)"/><path class="cls-4" d="M23.52,19.81h-.3v11h.58v-8.9a5.37,5.37,0,0,1-.29-1.76C23.51,20,23.51,19.91,23.52,19.81Z" transform="translate(-8.83 -5.99)"/><path class="cls-4" d="M25,30.76h.58V24.24a3.86,3.86,0,0,1-.58-.49Z" transform="translate(-8.83 -5.99)"/><path class="cls-4" d="M27.25,25v5.8h-.57V24.82a2,2,0,0,0,.33.09h0Z" transform="translate(-8.83 -5.99)"/><path class="cls-4" d="M29,24.82v5.94h-.57V25a4.54,4.54,0,0,0,.53-.12h0Z" transform="translate(-8.83 -5.99)"/><path class="cls-4" d="M30.14,30.76h.57v-7a4.35,4.35,0,0,1-.57.49Z" transform="translate(-8.83 -5.99)"/><path class="cls-4" d="M32.14,19.81c0,.1,0,.2,0,.29a5.37,5.37,0,0,1-.29,1.76v8.9h.58v-11Z" transform="translate(-8.83 -5.99)"/><path class="cls-4" d="M39,27.71" transform="translate(-8.83 -5.99)"/><path class="cls-4" d="M38.52,26H38.2a5.23,5.23,0,0,1-.57-.06,5.16,5.16,0,0,1-1.16-.34,5,5,0,0,1-.57-.27,5.77,5.77,0,0,1-1.16-.87,5.52,5.52,0,0,1-.55-.63h0a5.65,5.65,0,0,1-1.13-3.4,5.25,5.25,0,0,1,0-.56h-.65v0a.28.28,0,0,1,0,.09v.14a.49.49,0,0,0,0,.12v.16c0,.1,0,.21,0,.31a.76.76,0,0,0,0,.15.81.81,0,0,0,0,.16h0l0,.26v0c0,.09,0,.17.05.26v0c0,.08,0,.16,0,.24v0h0c0,.07,0,.13,0,.2a.5.5,0,0,1,0,.13,1.09,1.09,0,0,1,.05.17v0h0c0,.08.05.15.08.22l0,0a2,2,0,0,0,.08.22l0,0L33,23l0,.05h0a.61.61,0,0,0,0,.12.3.3,0,0,1,0,.08l0,.09.06.1a.64.64,0,0,0,.08.14l0,.06a.21.21,0,0,1,0,.06l0,.05,0,.05,0,0,.11.16.06.08,0,0,.06.09h0l0,0,0,0,.06.08c.11.13.22.26.34.38h0l.26.25,0,0,0,0,.09.08h0l0,0,.12.1,0,0,.09.07h0l0,0,0,0,.08.05.11.08.09.06,0,0,.08.05.05,0h0l.08.05a1.82,1.82,0,0,0,.27.15l.15.08h0l.12.06h0l.12.06h0l.14.06h0l.1,0h0l.11,0,.14,0h0l.12,0h0l.09,0h0l.12,0,.15,0,.15,0,.14,0h0v4.24h.18a.22.22,0,0,1-.05.08.22.22,0,0,0,.05-.08l0-.06a1.59,1.59,0,0,0,.13-.22l.12-.23c0-.07.07-.15.11-.22V26.58h.71l.16,0h.18c0,.22-.07.45-.11.67,0-.22.08-.45.11-.67a1,1,0,0,0,0-.17c0-.05,0-.11,0-.16l0-.33c0-.05,0-.1,0-.15s0,.1,0,.15A5.29,5.29,0,0,1,38.52,26Z" transform="translate(-8.83 -5.99)"/><path class="cls-4" d="M32.92,22.86l0,0v-.05l0-.05,0,0h0s0,0,0,0v0l0,0h0v0h0l0-.1,0-.08v0l0-.11s0,0,0-.06a.5.5,0,0,0,0-.13s0-.05,0-.07a.5.5,0,0,1,0-.13v0s0-.06,0-.1h0s0-.06,0-.09V21.5s0,0,0-.07a.19.19,0,0,1,0-.08.07.07,0,0,1,0-.05v-.05s0-.06,0-.09h0v-.1s0,0,0-.07v9.77H33V23.07L33,23l-.05-.11Z" transform="translate(-8.83 -5.99)"/><path class="cls-4" d="M34.61,25.15h0l0,0h0a.27.27,0,0,1-.08-.07l0,0-.11-.1h0l-.13-.13h0v6h.57v-5.5l0,0h0Z" transform="translate(-8.83 -5.99)"/><path class="cls-4" d="M36.38,26.2H36.3l-.07,0,0,0h0l0,0,0,0H36L35.9,26v4.77h.57V26.23h0Z" transform="translate(-8.83 -5.99)"/><path class="cls-4" d="M18,19l.22-.35Z" transform="translate(-8.83 -5.99)"/><path class="cls-4" d="M23.19,21.23v.09l0,.15v.15s0,.06,0,.09h0v.05h0v0l0,.09a.5.5,0,0,1,0,.13v0a.14.14,0,0,0,0,.07l0,.07,0,.09v.05h0l-.05.14,0,0,0,.06v0l-.07.16,0,.07,0,.05,0,.05h0l0,0v0l0,0v7.69h.58V21h0v0Z" transform="translate(-8.83 -5.99)"/><path class="cls-4" d="M21.42,24.81a.46.46,0,0,0-.07.07h0s0,0-.05.05l-.17.15h0l-.06.05h0l-.06.05h0l0,0v5.5h.57v-6h0Z" transform="translate(-8.83 -5.99)"/><path class="cls-4" d="M19.64,26.05l-.09,0,0,0h0l0,0h0l-.07,0h0l-.06,0-.06,0h0v4.53h.57V26l-.11.05Z" transform="translate(-8.83 -5.99)"/><path class="cls-4" d="M18,26.52h0l.13,0h0l.14,0,.15,0,.11,0h0l.12,0h0l.08,0h0l.05,0h0l.11,0,.08,0h.06l.09,0h0l.05,0,.21-.09h0l.09,0,.12-.06h0l.08,0,.08,0h0l.1,0,0,0,.09-.05h0l.1-.06,0,0,.07-.05.06,0h0l.05,0h0l0,0,.09-.06,0,0,.19-.15,0,0,0,0h0l.06-.05h0l0,0h0l0,0,.09-.08.08-.07.06-.06a.46.46,0,0,1,.07-.07l.07-.07h0l.14-.15.07-.08.07-.08.08-.09.1-.14h0l.07-.09v0a.44.44,0,0,0,.08-.11l.08-.12h0l0,0,0-.05,0-.05.08-.13.07-.12a.43.43,0,0,1,0-.07l0-.07,0-.06,0-.07,0-.06,0-.07,0,0c0-.06.05-.12.07-.17l0-.07a1.67,1.67,0,0,0,.08-.2l0-.06a1.8,1.8,0,0,0,.08-.21v0c0-.08.05-.15.07-.23h0v0l.06-.22v0c0-.07,0-.15.05-.22v-.06l0-.22v-.06l0-.24h0a.57.57,0,0,0,0-.13s0-.06,0-.09h0v-.07c0-.1,0-.21,0-.31v-.16a.49.49,0,0,0,0-.12V20a.28.28,0,0,1,0-.09v0h-.65a5.25,5.25,0,0,1,0,.56,5.62,5.62,0,0,1-1.13,3.4h0a4.78,4.78,0,0,1-.55.63,5.77,5.77,0,0,1-1.16.87,5,5,0,0,1-.57.27,5.07,5.07,0,0,1-1.15.34,5.7,5.7,0,0,1-.58.06h-.32a5.29,5.29,0,0,1-.8-.06c0,.22,0,.44.07.66h.18l.16,0h.71V30l.06.12.05.1.09.17a.25.25,0,0,0,0,.07.75.75,0,0,0,.07.12l.06.13,0,0H18Z" transform="translate(-8.83 -5.99)"/><polygon class="cls-4" points="9.02 24.78 9.2 24.78 10.36 24.78 10.93 24.78 12.08 24.78 12.66 24.78 13.81 24.78 14.39 24.78 14.96 24.78 16.12 24.78 16.69 24.78 17.85 24.78 18.42 24.78 19.57 24.78 20.15 24.78 21.3 24.78 21.88 24.78 23.03 24.78 23.61 24.78 24.18 24.78 25.34 24.78 25.91 24.78 27.07 24.78 27.64 24.78 28.79 24.78 28.98 24.78 28.98 24.78 28.97 24.79 28.62 25.35 24.18 25.35 23.61 25.35 23.03 25.35 14.96 25.35 14.39 25.35 13.81 25.35 9.37 25.35 9.02 24.78"/><path class="cls-4" d="M23.22,31.08v4.48L23,35.45l-.08,0-.26-.13V31.08Z" transform="translate(-8.83 -5.99)"/><path class="cls-4" d="M23.8,31.08V35.8l0,0-.54-.22V31.08Z" transform="translate(-8.83 -5.99)"/><path class="cls-4" d="M32.44,31.08v4.48a5.89,5.89,0,0,1-.58.24V31.08Z" transform="translate(-8.83 -5.99)"/><path class="cls-4" d="M33,31.08v4.21l-.26.13-.08,0-.24.11V31.08Z" transform="translate(-8.83 -5.99)"/><path class="cls-4" d="M30.71,20.1v.43h.78a3,3,0,0,0,0-.43Zm1.73-.23a.13.13,0,0,0,0-.06,4.49,4.49,0,0,0-1-2.41,4.67,4.67,0,0,0-8.27,2.41c0,.17,0,.34,0,.5a4.18,4.18,0,0,0,.07.8h0s0,.05,0,.07h0a4.47,4.47,0,0,0,.58,1.51A4.62,4.62,0,0,0,25,24a3.87,3.87,0,0,0,.58.38,4.46,4.46,0,0,0,1.15.46l.28.06H27a2,2,0,0,0,.24,0,3.39,3.39,0,0,0,.55,0,6,6,0,0,0,.61,0l.53-.1h0a4.35,4.35,0,0,0,1.16-.47,4.7,4.7,0,0,0,2.29-3.49h0s0-.06,0-.1,0-.29,0-.45S32.45,20,32.44,19.87ZM32,19.81A1.8,1.8,0,0,1,32,20a.08.08,0,0,1,0,0s0,0,0,0h-1.3A.06.06,0,0,1,30.6,20a1.77,1.77,0,0,1,0-.23,7.63,7.63,0,0,0-.19-1.27.07.07,0,0,1,0-.08,4.39,4.39,0,0,0,.87-.4h0s0,0,.06,0A4.21,4.21,0,0,1,32,19.81Zm-.6,2.73s0,0-.06,0h0a3.22,3.22,0,0,0-.37-.2l-.23-.1-.27-.1a.07.07,0,0,1,0-.08,8.09,8.09,0,0,0,.2-1.5.06.06,0,0,1,.06-.06H32s0,0,0,0a.08.08,0,0,1,0,.05,4.14,4.14,0,0,1-.17.92A4.06,4.06,0,0,1,31.41,22.54Zm-.33.47c-.12.13-.24.26-.37.38a4.1,4.1,0,0,1-.57.46,4.71,4.71,0,0,1-.58.32h0a.05.05,0,0,1-.05,0,.06.06,0,0,1,0-.08c.07-.09.15-.19.22-.3a5.64,5.64,0,0,0,.44-.85c0-.1.07-.2.11-.31l0,0h0l.38.16h0l.34.17a.09.09,0,0,1,0,.05A.13.13,0,0,1,31.08,23Zm-1.16-4.39h0a.09.09,0,0,1,0,.05,5.92,5.92,0,0,1,.17,1.13,1.7,1.7,0,0,1,0,.22.07.07,0,0,1,0,0s0,0,0,0H28.08A.07.07,0,0,1,28,20V19a.07.07,0,0,1,.07-.07,8.33,8.33,0,0,0,1.83-.25Zm-1.91,2a.07.07,0,0,1,.07-.06h2.06l0,0a.07.07,0,0,1,0,.05c0,.17,0,.34,0,.52s-.09.56-.15.83A.09.09,0,0,1,30,22h-.05a9,9,0,0,0-.93-.18l-.57-.06h-.33a.07.07,0,0,1-.07-.07Zm1.47-4.11a.05.05,0,0,1,.05,0h0a4.32,4.32,0,0,1,1.29.91l.23.25a.13.13,0,0,1,0,.06.09.09,0,0,1,0,.05,5.51,5.51,0,0,1-.73.33h0s0,0,0,0a6,6,0,0,0-.28-.68,4.31,4.31,0,0,0-.49-.78A.06.06,0,0,1,29.48,16.48ZM28,16.17a.05.05,0,0,1,0-.05h.05a2.3,2.3,0,0,1,1.38,1.21,4.72,4.72,0,0,1,.36.82,0,0,0,0,1,0,.05s0,0,0,0a8.5,8.5,0,0,1-1.71.23h0l0,0a.08.08,0,0,1,0-.05Zm-.5-.06h0a.05.05,0,0,1,0,.05v2.22a.08.08,0,0,1,0,.05l-.05,0h0a8.5,8.5,0,0,1-1.71-.23l0,0a0,0,0,0,1,0-.05,4.78,4.78,0,0,1,.43-.94A2.21,2.21,0,0,1,27.51,16.11Zm-1.39,8a.06.06,0,0,1,0,.08.05.05,0,0,1-.05,0h0a3.15,3.15,0,0,1-.51-.28,4.21,4.21,0,0,1-.58-.44,5.93,5.93,0,0,1-.43-.44.13.13,0,0,1,0-.06.09.09,0,0,1,0-.05l.38-.19h0l.32-.13h.05l0,0c.06.16.11.31.18.46a4,4,0,0,0,.32.62C25.94,23.83,26,24,26.12,24.07Zm-1.93-1.53a4.19,4.19,0,0,1-.39-.83,3.85,3.85,0,0,1-.23-1.11s0,0,0-.05,0,0,.05,0H25a.06.06,0,0,1,.05.06,8.09,8.09,0,0,0,.2,1.5.07.07,0,0,1,0,.08l-.21.07-.25.11c-.14.07-.28.14-.41.22h0S24.21,22.56,24.19,22.54Zm1.25-2.73a5.92,5.92,0,0,1,.17-1.13.09.09,0,0,1,0-.05h.05a8.33,8.33,0,0,0,1.83.25.07.07,0,0,1,.07.07V20a.07.07,0,0,1-.07.06h-2a.06.06,0,0,1,0,0,0,0,0,0,1,0,0A1.7,1.7,0,0,1,25.44,19.81Zm.24,2.2h0a.09.09,0,0,1,0-.05c0-.13-.06-.27-.08-.41a5.76,5.76,0,0,1-.1-.94,0,0,0,0,1,0-.05.06.06,0,0,1,0,0h2a.07.07,0,0,1,.07.06v1.09a.07.07,0,0,1-.07.07h-.27l-.57,0c-.34.05-.67.11-1,.19ZM26,16.46h0a.05.05,0,0,1,.05,0,.06.06,0,0,1,0,.08,4,4,0,0,0-.41.63,4.83,4.83,0,0,0-.36.83s0,0,0,0h-.05a5.51,5.51,0,0,1-.73-.33.09.09,0,0,1,0-.05.13.13,0,0,1,0-.06,4.89,4.89,0,0,1,.45-.46A4.2,4.2,0,0,1,26,16.46Zm-.88,2a.07.07,0,0,1,0,.08A7.63,7.63,0,0,0,25,19.81,1.77,1.77,0,0,1,25,20a.06.06,0,0,1-.05.06H23.64s0,0-.05,0,0,0,0,0a1.8,1.8,0,0,1,0-.22,4.21,4.21,0,0,1,.6-1.72s0,0,.06,0h0A4.39,4.39,0,0,0,25.16,18.46Zm2.43,6a.05.05,0,0,1,0,.05h0l-.26-.08a1.93,1.93,0,0,1-.36-.22L26.68,24a3.86,3.86,0,0,1-.91-1.55,0,0,0,0,1,0,0l0,0a7.88,7.88,0,0,1,.87-.16l.57-.06h.27l.05,0a.08.08,0,0,1,0,0Zm.82-.05a1.35,1.35,0,0,1-.32.11H28a.05.05,0,0,1,0-.05V22.24a.08.08,0,0,1,0,0l0,0h0l.33,0a5.51,5.51,0,0,1,.57.06,6.83,6.83,0,0,1,.81.15s0,0,0,0a0,0,0,0,1,0,0A4,4,0,0,1,29,24a3.65,3.65,0,0,1-.3.27Zm2.3-4.31v.43h.78a3,3,0,0,0,0-.43Z" transform="translate(-8.83 -5.99)"/><text class="cls-5" transform="translate(11.14 9.31) rotate(-32.71)">H</text><text class="cls-5" transform="translate(12.73 8.28) rotate(-24.41)">O</text><text class="cls-5" transform="translate(14.36 7.52) rotate(-16.54)">P</text><text class="cls-5" transform="translate(16.04 7.01) rotate(-9.01)">E</text><text class="cls-5" transform="matrix(1, -0.02, 0.02, 1, 17.65, 6.73)">B</text><text class="cls-5" transform="translate(19.47 6.67) rotate(6.45)">R</text><text class="cls-5" transform="matrix(0.98, 0.21, -0.21, 0.98, 21.33, 6.9)">I</text><text class="cls-5" transform="translate(22.12 7.03) rotate(18.36)">D</text><text class="cls-5" transform="translate(23.86 7.6) rotate(26.39)">G</text><text class="cls-5" transform="translate(25.46 8.38) rotate(34.08)">E</text><text class="cls-5" transform="translate(6.88 29.62) rotate(44.47)">F</text><text class="cls-5" transform="translate(8.33 31.04) rotate(36.8)">O</text><text class="cls-5" transform="matrix(0.88, 0.48, -0.48, 0.88, 10.17, 32.39)">O</text><text class="cls-5" transform="translate(12.18 33.47) rotate(21.13)">T</text><text class="cls-5" transform="translate(14.15 34.22) rotate(13.39)">B</text><text class="cls-5" transform="matrix(1, 0.09, -0.09, 1, 16.41, 34.74)">A</text><text class="cls-5" transform="matrix(1, -0.03, 0.03, 1, 18.68, 34.93)">L</text><text class="cls-5" transform="translate(20.66 34.85) rotate(-8.66)">L</text><text class="cls-5" transform="matrix(0.97, -0.24, 0.24, 0.97, 22.54, 34.54)"> </text><text class="cls-5" transform="translate(23.52 34.32) rotate(-19.14)">c</text><text class="cls-5" transform="matrix(0.9, -0.45, 0.45, 0.9, 25.58, 33.58)">l</text><text class="cls-5" transform="translate(27.37 32.69) rotate(-33.99)">u</text><text class="cls-5" transform="matrix(0.74, -0.67, 0.67, 0.74, 29.28, 31.38)">b</text><rect class="cls-4" x="1.73" y="17.19" width="5.89" height="3.39"/><rect class="cls-4" x="30.47" y="17.19" width="5.89" height="3.39"/><text class="cls-6" transform="translate(31.95 19.96)">25</text><text class="cls-6" transform="translate(2.63 19.96)">20</text></svg>