<svg id="Layer_1" data-name="Layer 1" xmlns="http://www.w3.org/2000/svg" viewBox="0 0 200 50"><defs><style>.cls-1{font-size:17.41px;font-family:Manrope-Bold, Manrope;font-weight:700;}.cls-2{fill:#652d90;}</style></defs><text class="cls-1" transform="translate(71.9 29.38)">Shop<tspan class="cls-2" x="43.81" y="0">Maxxi</tspan></text><circle class="cls-2" cx="42.04" cy="39.68" r="2.21"/><circle class="cls-2" cx="58.09" cy="39.68" r="2.21"/><path class="cls-2" d="M64.9,22.06l-.11.62-.1.55v.06l-1.3,7.36v0h0a.09.09,0,0,1,0,0s0,.07,0,.1a.14.14,0,0,0,0,.06l0,.08a.14.14,0,0,1,0,.06.16.16,0,0,0,0,.07l0,.07h0l0,.06s0,0,0,0h0l-.06.06,0,0-.07.06h0l-.07,0a0,0,0,0,1,0,0l-.08.05h0s0,0,0,0h0l0,0h0l0,0-.12,0a1.1,1.1,0,0,1-.26.06H39.45l.37,2.11a.07.07,0,0,0,.07.06H61.34a1.24,1.24,0,0,1,0,2.48H38.56a1.18,1.18,0,0,1-.46-.19l-.05,0h0l0,0h0a1.55,1.55,0,0,1-.24-.27l-.06-.1a0,0,0,0,0,0,0,.39.39,0,0,1,0-.09s0-.07,0-.11a.53.53,0,0,1,0-.12s0,0,0-.06l-.81-4.59v-.06l-1.3-7.36v-.06l-.1-.55-.11-.62h.36l.13.18a5.07,5.07,0,0,0,.37.44,4,4,0,0,0,2,1.08,4.14,4.14,0,0,0,.87.09H41a4,4,0,0,0,2.82-1.17,3.67,3.67,0,0,0,.5-.62h1.32a3.67,3.67,0,0,0,.5.62A4,4,0,0,0,49,23.85h2.13A4,4,0,0,0,54,22.68a3.67,3.67,0,0,0,.5-.62h1.31a5,5,0,0,0,.5.62,4,4,0,0,0,2.83,1.17h2.12a4.14,4.14,0,0,0,.87-.09,3.92,3.92,0,0,0,2-1.08,3.86,3.86,0,0,0,.38-.44l.13-.18Z"/><path class="cls-2" d="M44.42,18.54v.57a3.64,3.64,0,0,1-3.63,3.64H38.84a3.64,3.64,0,0,1-3.63-3.64v-.57Z"/><path class="cls-2" d="M54.67,18.54v.57A3.64,3.64,0,0,1,51,22.75H49.1a3.64,3.64,0,0,1-3.64-3.64v-.57Z"/><path class="cls-2" d="M64.92,18.57v.54a3.64,3.64,0,0,1-3.64,3.64H59.34a3.64,3.64,0,0,1-3.63-3.64v-.57h9.2Z"/><polygon class="cls-2" points="45.58 8.11 44.79 14.54 44.42 17.53 35.21 17.53 36.84 13.1 38.68 8.11 45.58 8.11"/><polygon class="cls-2" points="54.67 17.53 45.46 17.53 46.62 8.11 53.51 8.11 54.67 17.53"/><polygon class="cls-2" points="64.92 17.53 55.71 17.53 55.34 14.54 54.55 8.11 61.45 8.11 63.29 13.1 64.92 17.53"/></svg>