<svg id="Layer_1" data-name="Layer 1" xmlns="http://www.w3.org/2000/svg" viewBox="0 0 200 50"><defs><style>.cls-1{fill:#6b4226;}.cls-2{font-size:19.98px;font-family:PlayfairDisplay-Regular, Playfair Display;}.cls-3{letter-spacing:-0.02em;}.cls-4{letter-spacing:-0.01em;}.cls-5{letter-spacing:-0.04em;}.cls-6{letter-spacing:0em;}.cls-7{font-size:8.82px;font-family:Avenir-Light, Avenir;font-weight:300;letter-spacing:0.11em;}</style></defs><path class="cls-1" d="M70.09,16.75a13.67,13.67,0,0,0-1-4.78c-.81-2-1.09-2.81-1.84-3.22a3,3,0,0,0-.57-.24c-.33-.1-1.59-.32-4.77.9a13.57,13.57,0,0,0-8.42,10.06,14.09,14.09,0,0,0-.25,2.82A13.56,13.56,0,0,0,54.68,28,13.46,13.46,0,0,0,47,32.94a13.45,13.45,0,0,0-2.85,8.31H47A10.78,10.78,0,0,1,57,30.52h.42a13.63,13.63,0,0,0,5.73-1.68,13.89,13.89,0,0,0,1.93-1.3,13.52,13.52,0,0,0,4.79-8A14.09,14.09,0,0,0,70.09,16.75Zm-3,2.43a10.78,10.78,0,0,1-9.41,8.5,10.76,10.76,0,0,1-1.36-7.82,10.78,10.78,0,0,1,9.41-8.5,10.76,10.76,0,0,1,1.36,7.82Z"/><path class="cls-1" d="M71.24,41.25H68.45a10.69,10.69,0,0,0-2-6.27,14,14,0,0,0,2-2A13.45,13.45,0,0,1,71.24,41.25Z"/><text class="cls-2" transform="translate(79.15 27.71)">Ro<tspan class="cls-3" x="23.89" y="0">f</tspan><tspan x="30.19" y="0">e</tspan><tspan class="cls-4" x="40.29" y="0">e</tspan><tspan class="cls-5" x="50.14" y="0">’</tspan><tspan class="cls-6" x="54.33" y="0">ah</tspan></text><text class="cls-7" transform="translate(80.16 38.17)">Modest Fashion</text></svg>