<svg id="Layer_1" data-name="Layer 1" xmlns="http://www.w3.org/2000/svg" viewBox="0 0 200 50"><defs><style>.cls-1,.cls-2{fill:#2e3192;}.cls-2{font-size:22.41px;font-family:ArialRoundedMTBold, Arial Rounded MT Bold;letter-spacing:0.01em;}.cls-3{letter-spacing:-0.01em;}.cls-4{letter-spacing:-0.05em;}</style></defs><path class="cls-1" d="M45.89,9.55a.8.8,0,0,0-.8-.8H19.79a.79.79,0,0,0-.79.8v4.07H45.89Z"/><path class="cls-1" d="M19,15.58V41.09a.79.79,0,0,0,.79.8h25.3a.8.8,0,0,0,.8-.8V15.58Zm21,18A8.93,8.93,0,0,1,23.59,28.9c1.36.63,2.14,1.62,4.55,1.62,3.56,0,3.56-2.15,7.12-2.15,3.15,0,3.51,1.69,6,2.07A8.91,8.91,0,0,1,40,33.59Z"/><text class="cls-2" transform="translate(54.66 32.64)">Pu<tspan class="cls-3" x="28.92" y="0">r</tspan><tspan x="38.4" y="0">e</tspan><tspan class="cls-4" x="51.94" y="0">T</tspan><tspan x="64.76" y="0">ential</tspan></text></svg>