<svg id="Layer_1" data-name="Layer 1" xmlns="http://www.w3.org/2000/svg" viewBox="0 0 30.04 30.04"><defs><style>.cls-1{fill:#231f20;}.cls-2{fill:#fff;}</style></defs><path class="cls-1" d="M31,16A15,15,0,0,1,20.66,30.29a15.18,15.18,0,0,1-4.49.73H16a15.3,15.3,0,0,1-3.73-.46A15.09,15.09,0,0,1,3.93,25,15,15,0,1,1,31,16Z" transform="translate(-0.98 -0.98)"/><path class="cls-2" d="M16.16,9.62h0a.27.27,0,0,0-.1-.08,6.14,6.14,0,0,0-6.83,1.89L1.7,20.6A14.93,14.93,0,0,0,3.93,25l1.2-1.51a.25.25,0,0,1,.26-.07l6.09,2.19a.23.23,0,0,1,.15.21l-.1,4.36a.23.23,0,0,0,.15.21l.59.22A15.3,15.3,0,0,0,16,31h.14v-5.1L16.2,9.76A.33.33,0,0,0,16.16,9.62Zm-4.3,6c0,.39,0,.78,0,1.16l-.09,4.42a.23.23,0,0,1-.31.21L8.09,20.23a.23.23,0,0,1-.1-.35l2.75-3.48c.25-.31.49-.62.71-.94a.23.23,0,0,1,.41.15Z" transform="translate(-0.98 -0.98)"/><path class="cls-2" d="M23.09,11.43a6.15,6.15,0,0,0-4.75-2.25,6.24,6.24,0,0,0-2.08.36l-.11.08a.33.33,0,0,0,0,.14l0,16.16,0,5.1a15.18,15.18,0,0,0,4.49-.73.28.28,0,0,0,0-.13l-.08-4.36a.23.23,0,0,1,.15-.22l6.1-2.19a.23.23,0,0,1,.25.07l1.06,1.35a15,15,0,0,0,2.22-4.48Zm1.08,8.81-3.32,1.2a.23.23,0,0,1-.3-.21l-.1-4.43c0-.4,0-.79,0-1.18a.23.23,0,0,1,.41-.15v0c.23.32.47.63.7.93l2.74,3.47A.22.22,0,0,1,24.17,20.24Z" transform="translate(-0.98 -0.98)"/></svg>