<?xml version="1.0" encoding="utf-8"?>
<!-- Generator: Adobe Illustrator 25.0.1, SVG Export Plug-In . SVG Version: 6.00 Build 0)  -->
<svg version="1.1" id="Layer_1" xmlns="http://www.w3.org/2000/svg" xmlns:xlink="http://www.w3.org/1999/xlink" x="0px" y="0px"
	 viewBox="0 0 32 32" style="enable-background:new 0 0 32 32;" xml:space="preserve">
<style type="text/css">
	.st0{display:none;}
	.st1{display:inline;fill:#231F20;}
	.st2{display:inline;}
	.st3{fill:#FFFFFF;}
	.st4{display:inline;fill:#FFFFFF;}
	.st5{fill:#101E2D;}
	.st6{fill:#F4F7FB;}
</style>
<g class="st0">
	<path class="st1" d="M30.37,16c0,0.36-0.01,0.73-0.04,1.08c-0.27,3.67-1.93,6.96-4.45,9.35c-1.24,1.17-2.68,2.12-4.27,2.8
		c-1.54,0.65-3.22,1.05-4.97,1.12c-0.21,0.01-0.42,0.01-0.63,0.01c-0.21,0-0.42,0-0.63-0.01c-1.79-0.08-3.5-0.48-5.06-1.16
		c-1.56-0.67-2.97-1.61-4.19-2.76c-2.51-2.38-4.16-5.65-4.45-9.31C1.65,16.76,1.63,16.38,1.63,16C1.63,8.06,8.06,1.63,16,1.63
		C23.94,1.63,30.37,8.06,30.37,16z"/>
	<g class="st2">
		<path class="st3" d="M8.38,10.68c-0.02-0.04-0.04-0.08-0.08-0.1c-0.04-0.03-0.08-0.04-0.13-0.04c-2.49,0-4.7,1.56-5.54,3.91
			l-0.96,2.68c0.28,3.66,1.94,6.93,4.45,9.31h3.11c0.09,0,0.18,0.06,0.21,0.15l0.87,2.62c1.56,0.68,3.27,1.08,5.06,1.16L8.38,10.68z
			 M7.83,22.73H4.46c-0.15,0-0.25-0.15-0.21-0.29l1.35-4.01c0.13-0.36,0.24-0.72,0.34-1.07c0.06-0.21,0.35-0.21,0.42,0
			c0,0.01,0,0.01,0,0.02c0.11,0.36,0.22,0.72,0.33,1.06l1.35,4.01C8.09,22.59,7.98,22.73,7.83,22.73z"/>
		<path class="st3" d="M29.39,14.45c-0.42-1.17-1.18-2.15-2.15-2.83c-0.97-0.68-2.15-1.08-3.39-1.08c-0.09,0-0.17,0.06-0.2,0.14
			l-7.02,19.67c1.76-0.08,3.44-0.47,4.97-1.12l0.9-2.65c0.03-0.09,0.11-0.15,0.21-0.15h3.16c2.52-2.39,4.17-5.67,4.45-9.35
			L29.39,14.45z M27.51,22.73h-3.37c-0.15,0-0.25-0.15-0.21-0.29l1.35-4.01c0.13-0.36,0.24-0.72,0.34-1.07
			c0.06-0.21,0.35-0.21,0.42,0c0,0.01,0,0.01,0,0.02c0.11,0.36,0.22,0.72,0.33,1.06l1.35,4.01C27.76,22.59,27.66,22.73,27.51,22.73z
			"/>
	</g>
</g>
<g class="st0">
	<path class="st1" d="M31.02,16c0,1.51-0.22,2.96-0.63,4.33c-0.49,1.63-1.25,3.14-2.22,4.48c-1.84,2.54-4.46,4.48-7.51,5.48
		c-1.42,0.46-2.92,0.72-4.49,0.73c-0.01,0-0.02,0-0.03,0c-0.05,0-0.09,0-0.14,0c-1.29,0-2.53-0.16-3.73-0.47
		c-3.39-0.86-6.31-2.88-8.34-5.61c-0.97-1.3-1.73-2.77-2.24-4.35c-0.47-1.45-0.72-3-0.72-4.6C0.98,7.7,7.7,0.98,16,0.98
		C24.3,0.98,31.02,7.7,31.02,16z"/>
	<path class="st4" d="M16.16,9.62C16.16,9.62,16.16,9.62,16.16,9.62c-0.03-0.04-0.06-0.07-0.11-0.08c-2.45-0.88-5.18-0.12-6.83,1.89
		L1.7,20.6c0.51,1.58,1.27,3.05,2.24,4.35l1.2-1.51c0.06-0.08,0.16-0.1,0.25-0.07l6.09,2.19c0.09,0.03,0.15,0.12,0.15,0.22
		l-0.1,4.35c0,0.1,0.06,0.19,0.15,0.22l0.59,0.21c1.19,0.3,2.44,0.47,3.73,0.47c0.05,0,0.09,0,0.14,0l0.01-5.1L16.2,9.76
		C16.2,9.71,16.18,9.66,16.16,9.62z M11.86,15.63c-0.02,0.4-0.04,0.78-0.05,1.16l-0.09,4.43c0,0.15-0.16,0.26-0.3,0.21l-3.32-1.19
		c-0.15-0.05-0.2-0.23-0.1-0.35l2.74-3.48c0.25-0.31,0.49-0.63,0.71-0.94c0.13-0.19,0.42-0.08,0.41,0.14
		C11.86,15.61,11.86,15.62,11.86,15.63z"/>
	<path class="st4" d="M23.09,11.43c-1.19-1.45-2.95-2.25-4.75-2.25c-0.7,0-1.4,0.12-2.08,0.36c-0.04,0.02-0.08,0.04-0.1,0.08
		c-0.03,0.04-0.04,0.09-0.04,0.14l0.04,16.17l0.01,5.1c1.57-0.02,3.07-0.27,4.49-0.73c0.02-0.04,0.04-0.08,0.03-0.13l-0.08-4.36
		c0-0.1,0.06-0.18,0.15-0.22l6.09-2.19c0.09-0.03,0.19,0,0.25,0.07l1.06,1.35c0.97-1.34,1.73-2.85,2.22-4.48L23.09,11.43z
		 M24.17,20.24l-3.32,1.19c-0.15,0.05-0.3-0.05-0.3-0.21l-0.1-4.43c0-0.4-0.02-0.79-0.05-1.18c-0.02-0.23,0.27-0.33,0.41-0.15
		c0,0,0.01,0.01,0.01,0.01c0.24,0.32,0.47,0.63,0.7,0.93l2.75,3.47C24.37,20.01,24.32,20.19,24.17,20.24z"/>
</g>
<g class="st0">
	<g class="st2">
		<path class="st5" d="M11.93,15.62c0,0.01,0,0.01,0,0.02c-0.02,0.39-0.04,0.77-0.05,1.14l-0.09,4.35c0,0.15-0.15,0.26-0.3,0.21
			l-3.26-1.17c-0.14-0.05-0.19-0.23-0.1-0.35l2.69-3.42c0.25-0.31,0.48-0.61,0.7-0.92C11.66,15.29,11.94,15.39,11.93,15.62z"/>
		<path class="st5" d="M11.71,25.61l-0.02,0.79l-0.07,3.26l-0.01,0.22c0,0,0,0.01,0,0.01c0,0.07,0,0.13,0,0.2
			c-3.02-0.94-5.62-2.82-7.46-5.3l1.18-1.48c0.06-0.07,0.16-0.1,0.25-0.07l5.99,2.15C11.65,25.42,11.71,25.51,11.71,25.61z"/>
		<path class="st5" d="M16.16,30.76L16.16,30.76c-0.01,0.01-0.02,0.01-0.03,0.01c-0.02,0-0.05,0-0.07,0c0.02,0,0.05,0,0.07,0
			C16.15,30.76,16.15,30.76,16.16,30.76z"/>
		<path class="st5" d="M24.03,20.17l-3.26,1.17c-0.14,0.05-0.3-0.05-0.3-0.2l-0.1-4.35c0-0.39-0.02-0.78-0.04-1.16
			c-0.02-0.22,0.27-0.33,0.4-0.15c0,0,0.01,0.01,0.01,0.01c0.23,0.31,0.46,0.62,0.69,0.91l2.7,3.41
			C24.22,19.94,24.17,20.12,24.03,20.17z"/>
		<path class="st5" d="M27.96,24.66c-1.81,2.49-4.37,4.39-7.35,5.37c-0.01,0-0.02,0.01-0.04,0.01c0.02-0.04,0.03-0.08,0.03-0.12
			l0-0.08l-0.06-3.44l-0.01-0.77c0-0.1,0.06-0.18,0.15-0.21l5.99-2.15c0.09-0.03,0.19,0,0.25,0.07L27.96,24.66z"/>
		<path class="st5" d="M30.76,16c0,1.48-0.22,2.91-0.62,4.26l-7.18-8.75c-1.17-1.43-2.9-2.21-4.67-2.21c-0.68,0-1.37,0.12-2.04,0.36
			c-0.04,0.02-0.08,0.04-0.1,0.08c-0.02-0.04-0.06-0.06-0.1-0.08c-2.41-0.86-5.09-0.12-6.71,1.86l-7.39,9.01
			C1.48,19.1,1.24,17.58,1.24,16C1.24,7.85,7.85,1.24,16,1.24C24.15,1.24,30.76,7.85,30.76,16z"/>
	</g>
	<g class="st2">
		<path class="st3" d="M11.61,29.88c0,0,0,0.01,0,0.01L11.61,29.88c0-0.07,0-0.14,0.01-0.22L11.61,29.88z"/>
		<path class="st3" d="M22.97,11.51c-1.17-1.43-2.9-2.21-4.67-2.21c-0.68,0-1.37,0.12-2.04,0.36c-0.04,0.02-0.08,0.04-0.1,0.08
			c-0.02-0.04-0.06-0.06-0.1-0.08c-2.41-0.86-5.09-0.12-6.71,1.86l-7.39,9.01c0.5,1.55,1.25,2.99,2.2,4.28l1.18-1.48
			c0.06-0.07,0.16-0.1,0.25-0.07l5.99,2.15c0.09,0.03,0.15,0.12,0.15,0.21l-0.02,0.79l-0.07,3.26c0,0.07,0,0.14,0,0.22v0.01
			c0,0.07,0,0.13,0,0.2c0.24,0.07,0.49,0.14,0.73,0.21c1.08,0.28,2.21,0.43,3.37,0.46c0.1,0,0.2,0,0.29,0c0.02,0,0.05,0,0.07,0
			c0.02,0,0.05,0,0.07,0c0.01,0,0.02,0,0.03,0v0c0.18,0,0.36-0.01,0.54-0.02c1.35-0.06,2.65-0.31,3.87-0.71
			c0.02-0.04,0.03-0.08,0.03-0.12l0-0.08l-0.06-3.44l-0.01-0.77c0-0.1,0.06-0.18,0.15-0.21l5.99-2.15c0.09-0.03,0.19,0,0.25,0.07
			l1.04,1.32c0.96-1.32,1.7-2.8,2.18-4.4L22.97,11.51z M11.49,21.33l-3.26-1.17c-0.14-0.05-0.19-0.23-0.1-0.35l2.69-3.42
			c0.25-0.31,0.48-0.61,0.7-0.92c0.13-0.18,0.42-0.08,0.4,0.14c0,0.01,0,0.01,0,0.02c-0.02,0.39-0.04,0.77-0.05,1.14l-0.09,4.35
			C11.79,21.27,11.63,21.38,11.49,21.33z M24.03,20.17l-3.26,1.17c-0.14,0.05-0.3-0.05-0.3-0.2l-0.1-4.35
			c0-0.39-0.02-0.78-0.04-1.16c-0.02-0.22,0.27-0.33,0.4-0.15c0,0,0.01,0.01,0.01,0.01c0.23,0.31,0.46,0.62,0.69,0.91l2.7,3.41
			C24.22,19.94,24.17,20.12,24.03,20.17z"/>
		<path class="st3" d="M20.61,30.03c-0.01,0-0.02,0.01-0.04,0.01c0.02-0.04,0.03-0.08,0.03-0.12L20.61,30.03z"/>
	</g>
</g>
<rect class="st6" width="32" height="32"/>
<g>
	<g>
		<path class="st5" d="M12.02,15.62c0,0.01,0,0.01,0,0.02c-0.02,0.38-0.04,0.75-0.05,1.12l-0.09,4.26c0,0.15-0.15,0.25-0.29,0.2
			L8.4,20.07c-0.14-0.05-0.19-0.22-0.1-0.34l2.64-3.34c0.24-0.3,0.47-0.6,0.69-0.9C11.75,15.31,12.03,15.4,12.02,15.62z"/>
		<path class="st5" d="M11.8,25.4l-0.02,0.78l-0.07,3.19l0,0.21c0,0,0,0.01,0,0.01c0,0.07,0,0.13,0,0.2
			c-2.95-0.92-5.5-2.76-7.3-5.19l1.15-1.45c0.06-0.07,0.16-0.1,0.25-0.07l5.86,2.1C11.74,25.22,11.8,25.31,11.8,25.4z"/>
		<path class="st5" d="M16.16,30.44L16.16,30.44c-0.01,0-0.02,0-0.03,0c-0.02,0-0.04,0-0.07,0c0.02,0,0.04,0,0.07,0
			C16.14,30.45,16.15,30.45,16.16,30.44z"/>
		<path class="st5" d="M23.86,20.08l-3.19,1.15c-0.14,0.05-0.29-0.05-0.29-0.2l-0.09-4.26c0-0.39-0.02-0.76-0.04-1.13
			c-0.02-0.22,0.26-0.32,0.39-0.14c0,0,0.01,0.01,0.01,0.01c0.23,0.31,0.45,0.6,0.67,0.89l2.64,3.34
			C24.05,19.86,24,20.03,23.86,20.08z"/>
		<path class="st5" d="M27.7,24.47c-1.77,2.44-4.27,4.3-7.19,5.26c-0.01,0-0.02,0.01-0.04,0.01c0.02-0.03,0.03-0.08,0.03-0.12
			l0-0.08l-0.06-3.36l-0.01-0.75c0-0.09,0.06-0.18,0.14-0.21l5.86-2.11c0.09-0.03,0.19,0,0.25,0.07L27.7,24.47z"/>
		<path class="st5" d="M30.45,16c0,1.45-0.21,2.85-0.61,4.16l-7.02-8.56c-1.14-1.4-2.83-2.16-4.57-2.16c-0.67,0-1.34,0.11-2,0.35
			c-0.04,0.02-0.08,0.04-0.1,0.07c-0.02-0.03-0.06-0.06-0.1-0.08c-2.35-0.84-4.98-0.12-6.57,1.82l-7.23,8.82
			C1.79,19.03,1.55,17.54,1.55,16C1.55,8.02,8.02,1.55,16,1.55C23.98,1.55,30.45,8.02,30.45,16z"/>
	</g>
</g>
</svg>
