<svg id="Layer_1" data-name="Layer 1" xmlns="http://www.w3.org/2000/svg" viewBox="0 0 29.53 29.53"><defs><style>.cls-1{fill:#101e2d;}.cls-2{fill:#fff;}</style></defs><path class="cls-1" d="M11.93,15.62h0c0,.39,0,.77,0,1.14l-.09,4.35a.23.23,0,0,1-.3.21L8.23,20.16a.23.23,0,0,1-.1-.35l2.7-3.41c.24-.31.48-.62.7-.93A.22.22,0,0,1,11.93,15.62Z" transform="translate(-1.24 -1.24)"/><path class="cls-1" d="M11.71,25.61l0,.79-.07,3.27v.43a14.79,14.79,0,0,1-7.47-5.3l1.18-1.48a.22.22,0,0,1,.25-.08l6,2.15A.23.23,0,0,1,11.71,25.61Z" transform="translate(-1.24 -1.24)"/><path class="cls-1" d="M16.16,30.76Z" transform="translate(-1.24 -1.24)"/><path class="cls-1" d="M24,20.17l-3.26,1.17a.23.23,0,0,1-.3-.2l-.09-4.35c0-.4,0-.78-.05-1.16a.23.23,0,0,1,.41-.15v0l.68.91,2.7,3.41A.23.23,0,0,1,24,20.17Z" transform="translate(-1.24 -1.24)"/><path class="cls-1" d="M28,24.66A14.78,14.78,0,0,1,20.61,30h0a.24.24,0,0,0,0-.12v-.08l-.06-3.44,0-.77a.23.23,0,0,1,.15-.21l6-2.16a.23.23,0,0,1,.25.07Z" transform="translate(-1.24 -1.24)"/><path class="cls-1" d="M30.76,16a14.63,14.63,0,0,1-.62,4.26L23,11.51a6.08,6.08,0,0,0-6.72-1.86.39.39,0,0,0-.1.08.27.27,0,0,0-.1-.08,6.05,6.05,0,0,0-6.72,1.86l-7.39,9A14.76,14.76,0,1,1,30.76,16Z" transform="translate(-1.24 -1.24)"/><path class="cls-2" d="M11.61,29.88v0a1.48,1.48,0,0,1,0-.21Z" transform="translate(-1.24 -1.24)"/><path class="cls-2" d="M23,11.51a6.08,6.08,0,0,0-6.72-1.86.39.39,0,0,0-.1.08.27.27,0,0,0-.1-.08,6.05,6.05,0,0,0-6.72,1.86l-7.39,9a14.84,14.84,0,0,0,2.2,4.28l1.18-1.48a.22.22,0,0,1,.25-.08l6,2.15a.23.23,0,0,1,.15.22l0,.79-.07,3.27a1.48,1.48,0,0,0,0,.21v.22l.73.21a15,15,0,0,0,3.37.45h1A15,15,0,0,0,20.58,30a.24.24,0,0,0,0-.12v-.08l-.06-3.44,0-.77a.23.23,0,0,1,.15-.21l6-2.16a.23.23,0,0,1,.25.07l1,1.33a14.72,14.72,0,0,0,2.18-4.4ZM11.49,21.33,8.23,20.16a.23.23,0,0,1-.1-.35l2.7-3.41c.24-.31.48-.62.7-.93a.22.22,0,0,1,.4.15h0c0,.39,0,.77,0,1.14l-.09,4.35A.23.23,0,0,1,11.49,21.33ZM24,20.17l-3.26,1.17a.23.23,0,0,1-.3-.2l-.09-4.35c0-.4,0-.78-.05-1.16a.23.23,0,0,1,.41-.15v0l.68.91,2.7,3.41A.23.23,0,0,1,24,20.17Z" transform="translate(-1.24 -1.24)"/><path class="cls-2" d="M20.61,30h0a.24.24,0,0,0,0-.12Z" transform="translate(-1.24 -1.24)"/></svg>